:SAMPLES-PER-SECOND 30
:FRAME-RANGE 1-2643
:FULLY-SPECIFIED
:DEGREES
1405
root  90.813 32.3795 14.1637 -178.233 -68.964 -163.127
RightUpLeg  -40.0368 -4.49354 -36.5439
RightLeg  30.9398 -1.96523 -1.50652
RightFoot  3.52533 -2.22129 17.0955
RightToes  5.38607e-012 1.2921e-014 -6.02303e-014
Spine  34.4747 -2.83108 15.0003
Spine1  -2.50681 2.82834 -3.52703
HEad  -11.4878 5.09878 -10.7909
LeftShoulder1  2.53363 -10.5162 -11.3968
LeftArm  -4.95363 -38.519 -65.0375
LeftForeArm  30.4517 1.48949 -9.29492
LeftHand  -0.071215 4.54202 7.30483
RightShoulder  4.0417 14.0224 16.7953
RightArm  -6.65766 67.998 76.1577
RightForeArm  59.0116 -4.51488 -3.42703
RightHand  -0.0450462 -5.19139 -20.9138
LeftUpLeg  -58.7578 15.3511 -0.715803
LeftLeg  72.7918 -1.21375 -3.40499
LeftFoot  -27.8994 0.815508 4.44656
LeftToes  -4.79707e-012 -5.93756e-011 -7.55542e-012
1406
root  92.0549 31.3079 11.6021 -172.697 -69.8758 -168.564
RightUpLeg  -44.9911 -6.44156 -38.8435
RightLeg  36.4542 0.0699761 -0.200592
RightFoot  7.9407 -2.40035 14.3856
RightToes  5.38607e-012 1.2921e-014 -6.02303e-014
Spine  36.3142 -3.29629 12.6403
Spine1  -2.0618 2.43404 -6.75554
HEad  -14.634 5.39093 -10.2145
LeftShoulder1  2.63334 -12.0912 -10.0248
LeftArm  -3.57814 -49.6287 -63.9523
LeftForeArm  30.8984 3.3324 -8.97147
LeftHand  0.0109464 6.04638 6.42574
RightShoulder  3.31308 14.0418 12.1484
RightArm  -10.3543 69.7995 71.1189
RightForeArm  57.0342 -4.47583 -4.01528
RightHand  -0.194674 -4.28948 -19.5397
LeftUpLeg  -61.559 20.1236 1.13411
LeftLeg  75.5076 -2.15721 -8.39556
LeftFoot  -30.3099 0.894183 4.25544
LeftToes  -4.79707e-012 -5.93756e-011 -7.55542e-012
1407
root  93.2155 30.1536 8.56357 -164.477 -70.1968 -177.159
RightUpLeg  -51.1367 -13.6102 -33.3276
RightLeg  46.7207 -2.9141 -3.62788
RightFoot  0.659151 -2.40524 22.6505
RightToes  5.38607e-012 1.2921e-014 -6.02303e-014
Spine  37.9693 -2.58707 7.39404
Spine1  -2.39135 2.2091 -9.58828
HEad  -17.2885 5.43062 -8.76034
LeftShoulder1  2.88959 -13.5624 -10.0469
LeftArm  -1.63352 -59.0977 -66.1599
LeftForeArm  34.1522 4.37909 -8.22349
LeftHand  0.0316063 6.47625 6.30796
RightShoulder  2.64758 13.1472 8.7993
RightArm  -22.4288 69.3774 57.5956
RightForeArm  53.423 -4.28476 -5.72688
RightHand  -0.223914 -4.16529 -20.3848
LeftUpLeg  -63.5358 24.6898 4.00399
LeftLeg  78.1036 -2.86957 -14.5073
LeftFoot  -29.8468 0.289732 0.674624
LeftToes  -4.79707e-012 -5.93756e-011 -7.55542e-012
1408
root  94.1431 29.217 5.43991 -153.69 -69.7314 170.994
RightUpLeg  -56.7393 -15.124 -33.1974
RightLeg  60.1447 -0.638251 -1.69653
RightFoot  -13.734 0.481097 27.0741
RightToes  5.38607e-012 1.2921e-014 -6.02303e-014
Spine  38.0875 -1.8618 1.40336
Spine1  -1.35391 1.42451 -12.7879
HEad  -19.3215 6.23436 -6.99398
LeftShoulder1  3.28467 -15.1946 -10.7292
LeftArm  5.40103 -64.8506 -71.2374
LeftForeArm  35.7325 2.65227 -9.2971
LeftHand  0.0189814 6.35766 5.6085
RightShoulder  2.35917 12.0173 8.0183
RightArm  -33.7212 65.0025 43.3798
RightForeArm  46.2359 -4.31874 -6.63007
RightHand  -0.12013 -4.72251 -19.1036
LeftUpLeg  -62.0869 26.8721 7.15255
LeftLeg  77.5206 -3.79295 -18.3183
LeftFoot  -29.0703 -0.56825 -4.76321
LeftToes  -4.79707e-012 -5.93756e-011 -7.55542e-012
1409
root  94.7244 28.5668 2.38794 -147.107 -70.3739 163.679
RightUpLeg  -62.2277 -16.1612 -30.5851
RightLeg  72.2039 -0.109094 -1.31204
RightFoot  -18.4055 1.35979 23.752
RightToes  5.38607e-012 1.2921e-014 -6.02303e-014
Spine  37.7851 -2.69369 -1.30894
Spine1  -1.69201 -0.128331 -15.0541
HEad  -19.405 6.8689 -7.4384
LeftShoulder1  3.90712 -15.7021 -13.8202
LeftArm  14.0913 -65.3425 -76.7751
LeftForeArm  37.3469 -0.72418 -11.4301
LeftHand  -0.0242239 5.38221 5.08603
RightShoulder  2.14419 10.8592 7.72374
RightArm  -37.2554 57.8658 37.0473
RightForeArm  45.0526 -4.40588 -6.30035
RightHand  -0.170401 -4.33335 -17.5485
LeftUpLeg  -58.9724 25.9731 12.6898
LeftLeg  74.6824 -5.09546 -19.5125
LeftFoot  -27.5991 -1.422 -11.0873
LeftToes  -4.79707e-012 -5.93756e-011 -7.55542e-012
1410
root  95.0668 28.5276 -0.664641 -145.419 -70.9083 160.061
RightUpLeg  -62.8002 -14.7238 -26.6212
RightLeg  79.2733 -0.0417627 -2.03838
RightFoot  -23.7719 2.40248 23.2582
RightToes  5.38607e-012 1.2921e-014 -6.02303e-014
Spine  36.9603 -3.50652 -2.59053
Spine1  0.0629128 -0.987968 -16.7086
HEad  -19.0388 7.38032 -7.95638
LeftShoulder1  4.65736 -15.4162 -18.5331
LeftArm  18.4226 -61.7656 -80.1174
LeftForeArm  40.892 -4.49646 -12.0755
LeftHand  -0.0346026 5.144 6.06116
RightShoulder  2.13773 9.90921 8.88574
RightArm  -39.517 51.0185 33.3575
RightForeArm  46.1876 -4.31591 -6.65268
RightHand  -0.106853 -4.7881 -18.5236
LeftUpLeg  -51.6725 23.7973 19.7181
LeftLeg  68.0345 -7.33509 -18.6455
LeftFoot  -24.8636 -2.05923 -18.4819
LeftToes  -4.79707e-012 -5.93756e-011 -7.55542e-012
1411
root  95.2769 29.0208 -3.81888 -140.343 -70.0663 153.204
RightUpLeg  -61.8564 -12.8622 -23.0907
RightLeg  83.1748 -0.0664424 -4.07483
RightFoot  -28.5225 2.82837 19.8357
RightToes  5.38607e-012 1.2921e-014 -6.02303e-014
Spine  36.727 -3.31396 -5.25931
Spine1  -0.516031 -1.77263 -17.0344
HEad  -16.0786 6.8885 -7.92569
LeftShoulder1  5.166 -14.5897 -22.8113
LeftArm  26.0365 -56.1769 -80.0025
LeftForeArm  40.0166 -8.01072 -12.4665
LeftHand  -0.0121791 5.60031 6.28717
RightShoulder  1.9317 8.558 8.99443
RightArm  -40.4993 42.2019 33.473
RightForeArm  42.6417 -4.2758 -7.34043
RightHand  -0.191022 -4.25811 -18.573
LeftUpLeg  -42.0156 18.0024 24.4632
LeftLeg  56.001 -9.08233 -13.6842
LeftFoot  -20.2425 -2.14745 -28.5781
LeftToes  -4.79707e-012 -5.93756e-011 -7.55542e-012
1412
root  95.3882 30.0037 -6.99912 -134.244 -69.3501 147.288
RightUpLeg  -60.4968 -11.4949 -18.3597
RightLeg  83.2055 -0.334235 -7.25489
RightFoot  -31.4356 2.63549 15.9981
RightToes  5.38607e-012 1.2921e-014 -6.02303e-014
Spine  33.9535 -3.5117 -7.06906
Spine1  -0.722274 -2.36448 -17.3712
HEad  -12.0235 6.08982 -7.46802
LeftShoulder1  5.10484 -13.0404 -25.3121
LeftArm  25.4363 -51.3866 -79.175
LeftForeArm  41.7294 -5.86305 -13.5048
LeftHand  -0.00333701 5.79275 6.13047
RightShoulder  1.79564 7.3541 9.61199
RightArm  -39.4031 33.0773 34.0025
RightForeArm  44.606 -4.40306 -6.37542
RightHand  -0.199994 -4.20992 -18.7126
LeftUpLeg  -34.5424 8.83236 28.0353
LeftLeg  41.4271 -5.49805 -4.78742
LeftFoot  -9.101 0.84519 -38.9972
LeftToes  -4.79707e-012 -5.93756e-011 -7.55542e-012
1413
root  95.5637 31.5099 -10.2831 -125.305 -70.5819 139.151
RightUpLeg  -57.0407 -12.7235 -11.9359
RightLeg  78.7974 -1.48326 -10.6805
RightFoot  -32.9485 1.88895 11.0504
RightToes  5.38607e-012 1.2921e-014 -6.02303e-014
Spine  31.0576 -3.61395 -9.414
Spine1  -0.492283 -3.19032 -15.1631
HEad  -8.98823 4.18667 -6.50983
LeftShoulder1  5.11514 -12.1631 -27.231
LeftArm  19.8206 -48.1674 -78.2897
LeftForeArm  44.9138 -0.813232 -14.235
LeftHand  -0.00032788 5.9537 5.33883
RightShoulder  1.60117 5.89547 10.2132
RightArm  -37.6371 25.0952 32.879
RightForeArm  49.9719 -4.56472 -4.69433
RightHand  -0.162983 -4.50487 -20.1529
LeftUpLeg  -32.7831 -1.3707 29.4181
LeftLeg  31.9003 1.3209 1.2484
LeftFoot  4.40059 2.37109 -17.235
LeftToes  -4.79707e-012 -5.93756e-011 -7.55542e-012
1414
root  95.7368 33.0708 -13.2169 -119.627 -70.8318 134.315
RightUpLeg  -53.3565 -13.0977 -6.42506
RightLeg  71.9945 -3.40844 -12.5664
RightFoot  -32.1488 0.949222 6.35879
RightToes  5.38607e-012 1.2921e-014 -6.02303e-014
Spine  29.2722 -3.73723 -11.6353
Spine1  -1.41431 -4.21794 -12.7756
HEad  -6.61504 3.13661 -4.72273
LeftShoulder1  5.09122 -11.6151 -28.3223
LeftArm  13.5007 -44.9049 -76.2206
LeftForeArm  44.6538 1.59408 -13.7077
LeftHand  0.0285429 6.52483 5.81122
RightShoulder  1.50497 4.96591 11.0799
RightArm  -36.0959 17.8407 31.8055
RightForeArm  50.0971 -4.80341 -3.31509
RightHand  -0.226487 -4.16956 -20.7156
LeftUpLeg  -33.9973 -8.04481 27.7836
LeftLeg  33.7449 -2.73004 -1.59426
LeftFoot  -1.36594 1.05562 -11.9692
LeftToes  -4.79707e-012 -5.93756e-011 -7.55542e-012
1415
root  95.947 34.8386 -15.9599 -122.232 -71.0731 137.145
RightUpLeg  -48.8769 -12.8615 -0.51404
RightLeg  63.8365 -4.65411 -10.8002
RightFoot  -27.0585 0.100177 2.05609
RightToes  5.38607e-012 1.2921e-014 -6.02303e-014
Spine  27.4401 -3.31667 -13.5455
Spine1  -0.738088 -4.70086 -9.46588
HEad  -4.54562 3.6995 -3.02444
LeftShoulder1  4.80432 -11.3402 -26.9626
LeftArm  7.55469 -42.7612 -75.3602
LeftForeArm  42.3278 3.74975 -12.3119
LeftHand  0.0722059 6.87002 7.79106
RightShoulder  1.50153 4.3057 12.7699
RightArm  -35.6371 14.0576 31.2655
RightForeArm  48.7361 -4.92977 -2.80073
RightHand  -0.187768 -4.38231 -20.6008
LeftUpLeg  -34.9519 -10.1541 23.7242
LeftLeg  40.905 -4.21629 -3.51256
LeftFoot  -5.71399 0.514342 -9.75266
LeftToes  -4.79707e-012 -5.93756e-011 -7.55542e-012
